<svg fill="#1E88E5" xmlns="http://www.w3.org/2000/svg" shape-rendering="geometricPrecision" text-rendering="geometricPrecision" image-rendering="optimizeQuality" fill-rule="evenodd" clip-rule="evenodd" viewBox="0 0 512 469.74"><path d="M412.27 270.29c55.1 0 99.73 44.66 99.73 99.72 0 55.1-44.66 99.73-99.73 99.73-55.09 0-99.72-44.65-99.72-99.73 0-55.1 44.65-99.72 99.72-99.72zM232.93 0c31.47 0 61.6 6.3 89.09 17.69l.91.42c28.11 11.79 53.42 28.94 74.62 50.15 21.54 21.56 38.85 47.2 50.62 75.61 11.4 27.49 17.69 57.61 17.69 89.06 0 8.19-.43 16.3-1.27 24.27a122.985 122.985 0 0 0-34.04-10.18c.33-4.65.49-9.35.49-14.09 0-26.89-5.32-52.48-14.97-75.74a198.26 198.26 0 0 0-43.01-64.33c-18.1-18.13-39.61-32.72-63.49-42.74l-.87-.33c-23.27-9.65-48.85-14.97-75.77-14.97-26.91 0-52.5 5.32-75.76 14.97-24.26 10.02-46.07 24.74-64.31 43.01-18.13 18.1-32.72 39.63-42.74 63.5l-.33.87c-9.65 23.26-14.97 48.85-14.97 75.76 0 26.92 5.32 52.51 14.97 75.77a196.78 196.78 0 0 0 22.99 40.95c20.35-12.65 69.85-20.22 90.3-26.7 20.41-6.48 22.39-8.05 28.13-25.13-7.37-6.3-14.49-16.16-15.68-29.16l-.98.01c-2.24-.02-4.4-.54-6.42-1.69-3.24-1.85-5.52-5.01-7.06-8.58-5.2-10.26-11.3-35.05 2.36-32.81l-1.7-3.2c-.32-3.97-.4-8.76-.49-13.8-.29-18.51-.67-40.95-15.55-45.45l-6.39-1.93c32.31-40.07 90.88-98.25 137.91-40.99 47.49 4.62 62.64 75.91 30.06 107.38 1.95.07 3.8.53 5.43 1.4 6.2 3.32 6.4 10.52 4.77 16.59-1.61 5.05-3.65 10.91-5.59 15.83-2.35 6.66-5.78 7.9-12.42 7.18-.29 14.38-9.63 21.25-18.81 29.22 7.43 10.67 9.92 15.37 18.73 20.06-7.33 15.86-11.44 33.52-11.44 52.13 0 17.78 3.73 34.69 10.46 49.99l.23.52.13.28.1.22.24.52.07.15.15.35.24.51.02.03.22.47.19.42.05.09.24.5.25.51.25.51.07.15.17.34.25.5.01.04.25.46.2.41.05.08.25.49.16.29.11.22.26.48.09.17.17.32.27.5.01.03.26.46.21.4.06.08.27.48.16.29c3.79 6.68 8.17 12.99 13.12 18.84a232.552 232.552 0 0 1-84.25 15.76c-31.45 0-61.58-6.3-89.08-17.7l-.92-.41c-28.12-11.79-53.42-28.95-74.62-50.15-21.49-21.5-38.79-47.14-50.59-75.6C6.3 294.53 0 264.41 0 232.93c0-31.47 6.3-61.59 17.69-89.08l.41-.92c11.8-28.11 28.95-53.42 50.16-74.61 21.5-21.5 47.12-38.8 75.6-50.6C171.34 6.3 201.46 0 232.93 0zm162.75 326.72c-.04-4.9-.49-8.4 5.58-8.31l19.68.24c6.34-.04 8.03 1.97 7.95 7.93v26.83h26.68c4.89-.05 8.39-.49 8.3 5.58l-.24 19.67c.04 6.35-1.97 8.03-7.92 7.96h-26.82v26.81c.08 5.96-1.61 7.97-7.95 7.93l-19.68.24c-6.07.09-5.62-3.41-5.58-8.31v-26.67h-26.83c-5.95.07-7.96-1.61-7.92-7.96l-.24-19.67c-.09-6.07 3.41-5.63 8.3-5.58h26.69v-26.69z"/></svg>