<!DOCTYPE svg PUBLIC "-//W3C//DTD SVG 1.1//EN" "http://www.w3.org/Graphics/SVG/1.1/DTD/svg11.dtd">

<!-- Uploaded to: SVG Repo, www.svgrepo.com, Transformed by: SVG Repo Mixer Tools -->
<svg width="20px" height="20px" viewBox="0 0 24 24" fill="none" xmlns="http://www.w3.org/2000/svg" transform="rotate(90)">

<g id="SVGRepo_bgCarrier" stroke-width="0"/>

<g id="SVGRepo_tracerCarrier" stroke-linecap="round" stroke-linejoin="round"/>

<g id="SVGRepo_iconCarrier"> <path d="M21.07 10.3L15.07 4.29996C14.93 4.15996 14.74 4.07996 14.54 4.07996H3C2.59 4.07996 2.25 4.41996 2.25 4.82996V12.71C2.25 12.91 2.33 13.1 2.47 13.24L8.47 19.23C8.91 19.67 9.49 19.91 10.11 19.91C10.73 19.91 11.32 19.67 11.75 19.23L11.97 19.01C12.01 19.09 12.05 19.17 12.12 19.23C12.57 19.68 13.17 19.91 13.76 19.91C14.35 19.91 14.95 19.68 15.41 19.23L21.06 13.58C21.96 12.68 21.96 11.21 21.06 10.3H21.07ZM10.7 18.17C10.54 18.33 10.34 18.41 10.12 18.41C9.9 18.41 9.69 18.32 9.54 18.17L3.75 12.4V5.57996H10.57L16.35 11.36C16.67 11.68 16.67 12.2 16.35 12.52L10.7 18.17ZM20.01 12.52L14.36 18.17C14.04 18.49 13.51 18.49 13.19 18.17C13.12 18.1 13.05 18.06 12.96 18.02L17.4 13.58C18.3 12.67 18.3 11.2 17.4 10.3L12.68 5.57996H14.22L20 11.36C20.32 11.68 20.32 12.2 20 12.52H20.01ZM8.25 8.49996C8.25 9.18996 7.69 9.74996 7 9.74996C6.31 9.74996 5.75 9.18996 5.75 8.49996C5.75 7.80996 6.31 7.24996 7 7.24996C7.69 7.24996 8.25 7.80996 8.25 8.49996Z" fill="#1e88e5"/> </g>

</svg>