<svg fill="#1E88E5" id="Layer_1" data-name="Layer 1" xmlns="http://www.w3.org/2000/svg" viewBox="0 0 110.66 122.88"><title>indexing-pages</title><path d="M81.81,70.82a22.72,22.72,0,0,1,19,35.15l9.83,10.71-6.78,6.2L94.4,112.45A22.72,22.72,0,1,1,81.81,70.82ZM72.38,96.06a2.59,2.59,0,0,1-.32-.42,2.34,2.34,0,0,1-.25-.47,3,3,0,0,1,4.34-3.75,2,2,0,0,1,.47.35h0c.83.79,1.09,1,2,1.77l.79.71,7.37-7.85c2.73-2.8,7.08,1.31,4.36,4.18l-9,9.53-.4.42a3,3,0,0,1-4.21.19l0,0c-.2-.19-.41-.39-.63-.58L75.4,98.79c-1.2-1-1.89-1.61-3-2.73ZM19.78,65.28a2.8,2.8,0,0,1-2.64-2.89,2.74,2.74,0,0,1,2.64-2.89H42.42a2.8,2.8,0,0,1,2.65,2.89,2.76,2.76,0,0,1-2.65,2.89Zm65.1-47.7h9.5a6.66,6.66,0,0,1,4.78,2,6.73,6.73,0,0,1,2,4.78v37c-.21,2.12-5.41,2.15-5.85,0v-37a.94.94,0,0,0-1-1H84.85v38c-.51,1.93-4.84,2.21-5.82,0V6.78a1,1,0,0,0-.27-.69,1,1,0,0,0-.69-.27H6.74a1,1,0,0,0-.68.27.93.93,0,0,0-.28.69V87.36a.94.94,0,0,0,1,1H49.27c2.93.3,3,5.37,0,5.82H22.05v10.8a1,1,0,0,0,.28.69,1,1,0,0,0,.69.27H49.27c2.13.24,2.81,5.07,0,5.82H23.05a6.66,6.66,0,0,1-4.78-2,6.73,6.73,0,0,1-2-4.78V94.14H6.78a6.66,6.66,0,0,1-4.78-2,6.73,6.73,0,0,1-2-4.78V6.78A6.66,6.66,0,0,1,2,2,6.71,6.71,0,0,1,6.78,0H78.1a6.7,6.7,0,0,1,4.79,2,6.74,6.74,0,0,1,2,4.78v10.8ZM19.75,28.78a2.8,2.8,0,0,1-2.65-2.89A2.75,2.75,0,0,1,19.75,23H65a2.8,2.8,0,0,1,2.65,2.89A2.76,2.76,0,0,1,65,28.78Zm0,18.25a2.8,2.8,0,0,1-2.65-2.89,2.75,2.75,0,0,1,2.65-2.89H65a2.8,2.8,0,0,1,2.65,2.89A2.76,2.76,0,0,1,65,47ZM93.89,81.46a17.06,17.06,0,1,0,5,12.07,17,17,0,0,0-5-12.07Z"/></svg>